# Blender v2.79 (sub 0) OBJ File: 'cloud1.blend'
# www.blender.org
mtllib cloud1.mtl
g Icosphere.003
v -1.892032 1.123588 -2.752960
v -2.120348 0.584169 -3.678106
v -1.706761 0.559748 -2.714203
v -2.251104 0.584170 -2.639273
v -2.563104 0.584170 -3.206189
v -1.922342 0.188158 -3.068705
v -2.111573 1.314763 -3.206188
v -2.015036 1.029622 -3.611300
v -2.467025 1.029621 -3.285703
v -1.565427 1.107983 -3.137447
v -2.297039 1.029621 -2.755222
v -1.544419 0.562021 -3.414088
v -1.462597 0.779919 -3.137447
v -2.196932 0.242897 -3.268206
v 4.175785 -0.653674 0.111155
v 1.587243 -0.653675 0.586076
v -0.012582 -0.653669 -0.657267
v 1.587243 -0.653675 -1.900610
v 4.175785 -0.653674 -1.425688
v 3.018133 0.653675 0.586076
v 0.429592 0.653674 0.111155
v 0.429592 0.653674 -1.425688
v 3.018133 0.653675 -1.900610
v 4.617959 0.653668 -0.657267
v 2.535324 1.453010 -0.256123
v 2.070053 -1.453010 -0.256123
v 3.403659 -1.243351 -0.205603
v 2.983138 -0.768440 0.525218
v 4.504636 -0.768437 -0.657267
v 3.403659 -1.243351 -1.108931
v 0.941808 -1.243347 -0.657267
v 0.521273 -0.768437 0.073549
v 1.882163 -1.243351 -1.388080
v 0.521273 -0.768437 -1.388083
v 2.983138 -0.768440 -1.839751
v 4.764553 -0.000000 -0.205601
v 4.764553 -0.000000 -1.108932
v 2.302688 -0.000000 0.804374
v 3.824203 -0.000000 0.525225
v -0.159176 0.000000 -0.205601
v 0.781173 0.000000 0.525225
v 0.781173 -0.000000 -1.839759
v -0.159176 0.000000 -1.108932
v 3.824203 -0.000000 -1.839759
v 2.302688 -0.000000 -2.118907
v 4.084103 0.768437 0.073549
v 1.622238 0.768440 0.525218
v 0.100740 0.768437 -0.657267
v 1.622238 0.768440 -1.839751
v 4.084103 0.768437 -1.388083
v 3.663568 1.243347 -0.657267
v 1.201717 1.243351 -0.205603
v 1.201717 1.243351 -1.108931
v 2.723213 1.243351 -1.388080
v 0.829689 -0.061922 -0.908157
v -0.351159 -0.240007 -0.886193
v -1.176196 -0.209795 -1.612026
v -0.007967 -0.066913 -2.508618
v -0.829689 0.979216 -2.315896
v 1.176196 1.127090 -1.612026
v 0.133158 1.452780 -1.886012
v 0.632200 -0.392007 -1.303015
v 1.264403 -0.067089 -1.612026
v 0.936901 -0.223411 -2.069268
v -1.022925 -0.067089 -1.112029
v -0.133159 -0.535486 -1.886013
v 1.413652 0.458647 -1.303014
v 1.413652 0.458647 -1.921039
v 0.986075 0.777356 -0.874796
v -1.413653 0.458647 -1.303014
v -0.519144 0.404581 -0.621529
v -0.986075 0.139938 -2.349256
v -1.413653 0.458647 -1.921039
v 0.221811 0.700509 -2.608213
v -0.829689 0.979216 -0.908157
v -1.264403 0.984383 -1.612026
v 0.986075 0.777356 -2.349256
v 0.351159 1.157302 -0.886193
v -0.624602 1.414166 -1.612026
v 1.331670 -0.603031 0.807203
v -0.548647 -0.810477 0.843947
v -2.072201 -0.519455 -0.000000
v -0.014342 -0.611230 -1.043619
v 0.348245 0.282958 1.157058
v -1.331670 0.603030 -0.807203
v 2.072201 0.519455 -0.000000
v 0.208550 1.154651 -0.319059
v 0.985385 -0.988062 0.358927
v 1.970776 -0.610659 -0.000000
v 1.478256 -0.780719 -0.536921
v -1.218008 -0.988060 -0.000000
v -1.594393 -0.610660 0.580762
v -0.208550 -1.154651 -0.319059
v -1.594393 -0.610660 -0.580763
v 2.203405 -0.000000 0.358928
v 2.203405 -0.000000 -0.358928
v 1.361778 0.000000 0.939699
v -2.203405 0.000000 0.358928
v -1.361778 0.000000 0.939699
v -1.361778 0.000000 -0.939699
v -2.203405 0.000000 -0.358928
v 1.361778 -0.000000 -0.939699
v 0.348245 0.282958 -1.157058
v 1.594393 0.610660 0.580762
v -1.331669 0.603031 0.807203
v -1.970776 0.610659 -0.000000
v 1.594393 0.610660 -0.580763
v 0.376376 0.988063 0.580760
v 1.218007 0.988060 -0.000000
v -0.985385 0.988063 0.358927
v -0.985385 0.988062 -0.358927
v -0.849503 0.917120 -3.066618
v -1.514487 0.999587 -2.861759
v -1.763238 0.492784 -2.983541
v -1.380153 0.446510 -3.357028
v -1.473270 1.115246 -3.181365
v -1.853668 0.692341 -2.946111
v -1.543975 0.900859 -3.470372
v -1.916839 0.775172 -3.296531
v -0.882768 0.810580 -3.328782
v -1.101195 0.656843 -2.819124
v -0.958083 0.488500 -3.181926
vn 0.3185 0.9188 0.2333
vn 0.7364 0.2842 0.6140
vn -0.7288 0.0351 -0.6838
vn 0.4176 0.0374 -0.9079
vn 0.1405 0.1138 0.9835
vn -0.8755 0.0351 0.4819
vn -0.6092 -0.5498 -0.5715
vn 0.2371 -0.7776 -0.5823
vn 0.7690 -0.6144 0.1764
vn 0.0650 -0.7083 0.7029
vn -0.6110 -0.7167 0.3363
vn -0.4477 -0.8015 0.3964
vn 0.2727 -0.7638 -0.5850
vn 0.8170 -0.5452 0.1877
vn -0.0623 0.2454 0.9674
vn 0.7795 0.2443 0.5768
vn 0.8474 0.2656 -0.4598
vn 0.6444 0.3652 -0.6718
vn -0.5657 0.2515 -0.7853
vn -0.9217 0.2515 0.2953
vn -0.2029 0.8632 0.4624
vn 0.3631 0.8005 -0.4769
vn -0.6399 0.7406 0.2051
vn -0.4227 0.6906 -0.5868
vn -0.4845 0.8108 -0.3284
vn 0.1248 0.9791 0.1606
vn -0.0344 0.9817 0.1875
vn -0.7685 0.4969 -0.4031
vn -0.0140 0.3305 -0.9437
vn 0.7401 0.4867 -0.4642
vn 0.3685 0.3753 0.8505
vn -0.3364 0.3682 0.8668
vn -0.6050 0.1677 -0.7784
vn 0.1789 0.1299 -0.9753
vn 0.9758 0.2188 0.0000
vn 0.1789 0.1299 0.9753
vn -0.6050 0.1677 0.7784
vn -0.2095 -0.7664 -0.6073
vn 0.2889 -0.7183 -0.6330
vn 0.4845 -0.8108 0.3284
vn -0.0218 -0.6620 0.7492
vn -0.5099 -0.8252 0.2429
vn -0.1248 -0.9791 0.1606
vn -0.3034 -0.8693 0.3903
vn -0.2453 -0.7029 0.6676
vn 0.0344 -0.9817 0.1875
vn 0.1072 -0.8044 0.5844
vn 0.2889 -0.7183 0.6330
vn 0.1553 -0.9879 0.0000
vn 0.3961 -0.9182 0.0000
vn 0.4845 -0.8108 -0.3284
vn 0.1045 -0.8054 -0.5835
vn -0.0307 -0.7337 -0.6788
vn -0.3009 -0.8694 -0.3918
vn -0.5099 -0.8252 -0.2429
vn -0.7401 -0.4867 0.4642
vn -0.5944 -0.2485 0.7648
vn -0.3685 -0.3753 0.8505
vn 0.0140 -0.3305 0.9437
vn 0.1770 -0.1938 0.9649
vn 0.3364 -0.3682 0.8668
vn 0.7685 -0.4969 0.4031
vn 0.9473 -0.3204 0.0000
vn 0.7685 -0.4969 -0.4031
vn 0.3364 -0.3682 -0.8668
vn 0.1770 -0.1938 -0.9649
vn 0.0140 -0.3305 -0.9437
vn -0.3685 -0.3753 -0.8505
vn -0.5944 -0.2485 -0.7648
vn -0.7401 -0.4867 -0.4642
vn -0.1789 -0.1299 0.9753
vn -0.1770 0.1938 0.9649
vn -0.0140 0.3305 0.9437
vn 0.6050 -0.1677 0.7784
vn 0.5944 0.2485 0.7648
vn 0.7401 0.4867 0.4642
vn 0.6050 -0.1677 -0.7784
vn 0.5944 0.2485 -0.7648
vn 0.3685 0.3753 -0.8505
vn -0.1789 -0.1299 -0.9753
vn -0.1770 0.1938 -0.9649
vn -0.3364 0.3682 -0.8668
vn -0.9758 -0.2188 0.0000
vn -0.9473 0.3204 0.0000
vn -0.7685 0.4969 0.4031
vn -0.2889 0.7183 0.6330
vn -0.1072 0.8044 0.5844
vn 0.0218 0.6620 0.7492
vn 0.2453 0.7029 0.6676
vn 0.3034 0.8693 0.3903
vn 0.5099 0.8252 0.2429
vn 0.5099 0.8252 -0.2429
vn 0.3009 0.8694 -0.3918
vn 0.2095 0.7664 -0.6073
vn -0.4845 0.8108 0.3284
vn -0.3961 0.9182 0.0000
vn -0.1553 0.9879 0.0000
vn 0.0307 0.7337 -0.6788
vn -0.1045 0.8054 -0.5835
vn -0.2889 0.7183 -0.6330
vn 0.0310 0.9604 -0.2771
vn -0.5578 0.7525 -0.3501
vn 0.2351 0.9448 -0.2280
vn -0.7434 0.4830 -0.4627
vn -0.0720 0.3627 -0.9291
vn 0.8036 0.4600 -0.3776
vn -0.3696 0.2671 0.8900
vn -0.6418 0.1495 -0.7521
vn 0.9423 0.3347 0.0000
vn 0.1757 0.0748 0.9816
vn -0.5891 0.2444 0.7702
vn 0.5262 -0.7834 0.3308
vn 0.0176 -0.6914 0.7223
vn -0.3735 -0.7971 0.4745
vn -0.1679 -0.6929 0.7012
vn 0.2129 -0.8577 0.4680
vn 0.5262 -0.7834 -0.3308
vn -0.0498 -0.9607 -0.2731
vn 0.1388 -0.8600 -0.4910
vn -0.2351 -0.9448 -0.2280
vn -0.4456 -0.7589 -0.4749
vn -0.7744 -0.4706 0.4229
vn 0.2461 -0.0842 0.9656
vn 0.7434 -0.4830 0.4627
vn 0.9620 -0.2731 0.0000
vn 0.7434 -0.4830 -0.4627
vn 0.0788 -0.4105 -0.9084
vn -0.7744 -0.4706 -0.4229
vn -0.3328 0.2187 0.9173
vn 0.6418 -0.1495 0.7521
vn 0.7744 0.4706 0.4229
vn 0.6017 -0.0716 -0.7955
vn 0.6040 0.1657 -0.7796
vn 0.3855 0.4347 -0.8139
vn -0.1104 -0.2136 -0.9707
vn -0.1831 0.0731 -0.9804
vn -0.9423 -0.3347 0.0000
vn -0.9620 0.2731 0.0000
vn -0.7880 0.4625 0.4063
vn -0.1356 0.8045 0.5782
vn 0.2578 0.7464 0.6136
vn 0.3735 0.7971 0.4745
vn 0.3429 0.8703 -0.3535
vn -0.4503 0.8927 0.0173
vn -0.2614 0.9593 0.1071
vn -0.1305 0.7918 -0.5967
vn 0.0235 0.9605 -0.2774
vn -0.4452 0.8198 -0.3602
vn 0.0758 0.9619 -0.2625
vn -0.6504 0.5535 -0.5202
vn -0.0533 0.3150 -0.9476
vn 0.6988 0.5176 -0.4937
vn 0.2558 0.4156 0.8728
vn -0.2501 0.4142 0.8752
vn -0.5559 0.2048 -0.8056
vn 0.0899 0.2053 -0.9746
vn 0.9696 0.2449 0.0000
vn 0.1127 0.0800 0.9904
vn -0.5377 0.3218 0.7793
vn -0.1911 -0.6166 -0.7637
vn 0.4452 -0.8198 0.3602
vn 0.0187 -0.6914 0.7223
vn -0.4657 -0.8489 0.2498
vn -0.2699 -0.8779 0.3956
vn -0.1413 -0.6978 0.7023
vn 0.0897 -0.7887 0.6081
vn 0.1382 -0.9904 0.0000
vn 0.3577 -0.9339 0.0000
vn 0.4452 -0.8198 -0.3602
vn 0.0305 -0.9818 -0.1875
vn 0.0983 -0.7912 -0.6036
vn 0.0403 -0.6333 -0.7729
vn -0.1110 -0.9807 -0.1609
vn -0.2720 -0.8779 -0.3942
vn -0.4657 -0.8489 -0.2498
vn -0.6988 -0.5176 0.4937
vn -0.5487 -0.2584 0.7951
vn -0.2971 -0.3972 0.8683
vn 0.1587 -0.2194 0.9626
vn 0.6504 -0.5535 0.5202
vn 0.9345 -0.3560 0.0000
vn 0.6504 -0.5535 -0.5202
vn 0.1587 -0.2194 -0.9626
vn -0.2971 -0.3972 -0.8683
vn -0.5487 -0.2584 -0.7951
vn -0.6988 -0.5176 -0.4937
vn -0.1560 0.1863 0.9700
vn 0.5559 -0.2048 0.8056
vn 0.5487 0.2584 0.7951
vn 0.6988 0.5176 0.4937
vn 0.5559 -0.2048 -0.8056
vn 0.5487 0.2584 -0.7951
vn 0.2947 0.3983 -0.8686
vn -0.1457 0.2192 -0.9647
vn -0.9696 -0.2449 0.0000
vn -0.9345 0.3560 0.0000
vn -0.6980 0.5414 0.4688
vn -0.1046 0.8089 0.5786
vn 0.1821 0.7626 0.6207
vn 0.2699 0.8779 0.3956
vn 0.4657 0.8489 0.2498
vn 0.4657 0.8489 -0.2498
vn 0.2677 0.8779 -0.3970
vn -0.3498 0.9365 0.0243
vn -0.2009 0.9729 0.1147
vn -0.0991 0.7914 -0.6032
vn -0.4666 0.7612 -0.4505
vn 0.2225 0.9072 0.3570
vn 0.3122 0.4785 0.8207
vn 0.0333 -0.9871 0.1565
vn 0.1069 -0.8851 0.4529
vn -0.5068 -0.7489 -0.4270
vn 0.8135 -0.3341 0.4759
vn 0.9707 -0.2389 -0.0261
vn 0.3794 -0.4558 -0.8052
vn 0.1832 -0.1753 -0.9673
vn -0.1726 -0.2566 0.9510
vn -0.1696 -0.0824 0.9821
vn -0.3042 -0.3324 -0.8927
vn -0.9045 -0.4218 0.0634
vn -0.6817 0.6750 0.2824
vn 0.3432 0.8542 -0.3907
vn 0.2345 0.7524 -0.6155
vn -0.6280 0.7542 0.1919
usemtl Material.001
s off
f 7//1 1//1 10//1
f 1//2 3//2 10//2
f 9//3 2//3 5//3
f 8//4 12//4 2//4
f 1//5 4//5 3//5
f 11//6 5//6 4//6
f 2//7 14//7 5//7
f 12//8 6//8 2//8
f 3//9 6//9 12//9
f 4//10 6//10 3//10
f 5//11 14//11 4//11
f 14//12 6//12 4//12
f 6//13 14//13 2//13
f 13//14 3//14 12//14
f 11//15 4//15 1//15
f 3//16 13//16 10//16
f 13//17 12//17 10//17
f 10//18 12//18 8//18
f 8//19 2//19 9//19
f 9//20 5//20 11//20
f 7//21 11//21 1//21
f 7//22 10//22 8//22
f 9//23 11//23 7//23
f 7//24 8//24 9//24
f 15//25 29//25 27//25
f 26//26 33//26 31//26
f 26//27 30//27 33//27
f 15//28 36//28 29//28
f 16//29 38//29 28//29
f 17//30 40//30 32//30
f 18//31 42//31 34//31
f 19//32 44//32 35//32
f 15//33 39//33 36//33
f 16//34 41//34 38//34
f 17//35 43//35 40//35
f 18//36 45//36 42//36
f 19//37 37//37 44//37
f 20//38 25//38 46//38
f 21//39 52//39 47//39
f 22//40 53//40 48//40
f 23//41 54//41 49//41
f 24//42 51//42 50//42
f 51//43 25//43 54//43
f 51//44 54//44 50//44
f 50//45 54//45 23//45
f 54//46 25//46 53//46
f 54//47 53//47 49//47
f 49//48 53//48 22//48
f 53//49 25//49 52//49
f 53//50 52//50 48//50
f 48//51 52//51 21//51
f 52//52 25//52 47//52
f 47//53 25//53 20//53
f 25//54 51//54 46//54
f 46//55 51//55 24//55
f 37//56 24//56 50//56
f 37//57 50//57 44//57
f 44//58 50//58 23//58
f 45//59 23//59 49//59
f 45//60 49//60 42//60
f 42//61 49//61 22//61
f 43//62 22//62 48//62
f 43//63 48//63 40//63
f 40//64 48//64 21//64
f 41//65 21//65 47//65
f 41//66 47//66 38//66
f 38//67 47//67 20//67
f 39//68 20//68 46//68
f 39//69 46//69 36//69
f 36//70 46//70 24//70
f 44//71 23//71 45//71
f 44//72 45//72 35//72
f 35//73 45//73 18//73
f 42//74 22//74 43//74
f 42//75 43//75 34//75
f 34//76 43//76 17//76
f 40//77 21//77 41//77
f 40//78 41//78 32//78
f 32//79 41//79 16//79
f 38//80 20//80 39//80
f 38//81 39//81 28//81
f 28//82 39//82 15//82
f 36//83 24//83 37//83
f 36//84 37//84 29//84
f 29//85 37//85 19//85
f 30//86 19//86 35//86
f 30//87 35//87 33//87
f 33//88 35//88 18//88
f 33//89 18//89 34//89
f 33//90 34//90 31//90
f 31//91 34//91 17//91
f 31//92 17//92 32//92
f 31//93 32//93 26//93
f 26//94 32//94 16//94
f 29//95 19//95 30//95
f 29//96 30//96 27//96
f 27//97 30//97 26//97
f 26//98 16//98 28//98
f 26//99 28//99 27//99
f 27//100 28//100 15//100
f 66//101 56//101 62//101
f 55//102 63//102 62//102
f 66//103 57//103 56//103
f 55//104 67//104 63//104
f 56//105 71//105 55//105
f 57//106 70//106 65//106
f 64//107 77//107 58//107
f 55//108 69//108 67//108
f 57//109 73//109 70//109
f 58//110 74//110 72//110
f 64//111 68//111 77//111
f 59//112 79//112 76//112
f 74//113 61//113 59//113
f 60//114 61//114 77//114
f 77//115 61//115 74//115
f 61//116 79//116 59//116
f 76//117 79//117 75//117
f 79//118 61//118 78//118
f 79//119 78//119 75//119
f 78//120 61//120 60//120
f 78//121 60//121 69//121
f 68//122 60//122 77//122
f 74//123 59//123 72//123
f 73//124 59//124 76//124
f 73//125 76//125 70//125
f 70//126 76//126 75//126
f 71//127 75//127 78//127
f 67//128 69//128 60//128
f 77//129 74//129 58//129
f 72//130 59//130 73//130
f 72//131 73//131 57//131
f 70//132 75//132 71//132
f 70//133 71//133 65//133
f 65//134 71//134 56//134
f 71//135 78//135 69//135
f 71//136 69//136 55//136
f 67//137 60//137 68//137
f 67//138 68//138 63//138
f 63//139 68//139 64//139
f 64//140 58//140 66//140
f 66//141 58//141 72//141
f 66//142 72//142 57//142
f 57//143 65//143 56//143
f 63//144 64//144 62//144
f 62//145 64//145 66//145
f 56//146 55//146 62//146
f 93//147 81//147 88//147
f 80//148 89//148 88//148
f 93//149 91//149 81//149
f 80//150 95//150 89//150
f 81//151 84//151 80//151
f 82//152 98//152 92//152
f 83//153 100//153 94//153
f 90//154 102//154 83//154
f 80//155 97//155 95//155
f 81//156 99//156 84//156
f 82//157 101//157 98//157
f 83//158 103//158 100//158
f 90//159 96//159 102//159
f 84//160 108//160 104//160
f 85//161 111//161 106//161
f 103//162 87//162 85//162
f 86//163 109//163 107//163
f 109//164 87//164 107//164
f 107//165 87//165 103//165
f 87//166 111//166 85//166
f 111//167 87//167 110//167
f 111//168 110//168 106//168
f 106//169 110//169 105//169
f 110//170 87//170 108//170
f 110//171 108//171 105//171
f 105//172 108//172 84//172
f 108//173 87//173 109//173
f 108//174 109//174 104//174
f 104//175 109//175 86//175
f 96//176 86//176 107//176
f 96//177 107//177 102//177
f 102//178 107//178 103//178
f 103//179 85//179 100//179
f 101//180 85//180 106//180
f 101//181 106//181 98//181
f 98//182 106//182 105//182
f 99//183 105//183 84//183
f 97//184 84//184 104//184
f 97//185 104//185 95//185
f 95//186 104//186 86//186
f 102//187 103//187 83//187
f 100//188 85//188 101//188
f 100//189 101//189 94//189
f 94//190 101//190 82//190
f 98//191 105//191 99//191
f 98//192 99//192 92//192
f 92//193 99//193 81//193
f 84//194 97//194 80//194
f 95//195 86//195 96//195
f 95//196 96//196 89//196
f 89//197 96//197 90//197
f 90//198 83//198 93//198
f 93//199 83//199 94//199
f 93//200 94//200 91//200
f 91//201 94//201 82//201
f 91//202 82//202 92//202
f 91//203 92//203 81//203
f 89//204 90//204 88//204
f 88//205 90//205 93//205
f 81//206 80//206 88//206
f 118//207 119//207 116//207
f 116//208 113//208 112//208
f 113//209 121//209 112//209
f 114//210 115//210 122//210
f 114//211 122//211 121//211
f 115//212 114//212 119//212
f 112//213 121//213 122//213
f 112//214 122//214 120//214
f 120//215 122//215 115//215
f 120//216 115//216 118//216
f 117//217 114//217 121//217
f 117//218 121//218 113//218
f 118//219 115//219 119//219
f 119//220 114//220 117//220
f 119//221 117//221 113//221
f 112//222 120//222 116//222
f 116//223 120//223 118//223
f 119//224 113//224 116//224
